<?xml version="1.0" encoding="UTF-8" standalone="no"?>
<!DOCTYPE svg PUBLIC "-//W3C//DTD SVG 1.1//EN"
 "http://www.w3.org/Graphics/SVG/1.1/DTD/svg11.dtd">
<!-- Generated by graphviz version 2.43.0 (0)
 -->
<!-- Title: finite_state_machine Pages: 1 -->
<svg width="188pt" height="67pt"
 viewBox="0.00 0.00 188.00 67.00" xmlns="http://www.w3.org/2000/svg" xmlns:xlink="http://www.w3.org/1999/xlink">
<g id="graph0" class="graph" transform="scale(1 1) rotate(0) translate(4 63)">
<title>finite_state_machine</title>
<polygon fill="white" stroke="transparent" points="-4,4 -4,-63 184,-63 184,4 -4,4"/>
<!-- 7 -->
<g id="node1" class="node">
<title>7</title>
<ellipse fill="none" stroke="black" cx="18" cy="-18" rx="18" ry="18"/>
<text text-anchor="middle" x="18" y="-14.3" font-family="Helvetica,Arial,sans-serif" font-size="14.00">7</text>
</g>
<!-- 9 -->
<g id="node2" class="node">
<title>9</title>
<ellipse fill="none" stroke="black" cx="90" cy="-41" rx="18" ry="18"/>
<text text-anchor="middle" x="90" y="-37.3" font-family="Helvetica,Arial,sans-serif" font-size="14.00">9</text>
</g>
<!-- 7&#45;&gt;9 -->
<g id="edge1" class="edge">
<title>7&#45;&gt;9</title>
<path fill="none" stroke="black" d="M35.24,-23.33C43.42,-26.02 53.55,-29.35 62.8,-32.39"/>
<polygon fill="black" stroke="black" points="61.77,-35.74 72.37,-35.53 63.96,-29.09 61.77,-35.74"/>
</g>
<!-- 8 -->
<g id="node3" class="node">
<title>8</title>
<ellipse fill="none" stroke="black" cx="162" cy="-18" rx="18" ry="18"/>
<text text-anchor="middle" x="162" y="-14.3" font-family="Helvetica,Arial,sans-serif" font-size="14.00">8</text>
</g>
<!-- 9&#45;&gt;8 -->
<g id="edge3" class="edge">
<title>9&#45;&gt;8</title>
<path fill="none" stroke="black" d="M107.24,-35.67C115.42,-32.98 125.55,-29.65 134.8,-26.61"/>
<polygon fill="black" stroke="black" points="135.96,-29.91 144.37,-23.47 133.77,-23.26 135.96,-29.91"/>
</g>
<!-- 8&#45;&gt;7 -->
<g id="edge2" class="edge">
<title>8&#45;&gt;7</title>
<path fill="none" stroke="black" d="M143.83,-16.38C133.47,-15.48 119.99,-14.45 108,-14 92.01,-13.4 87.99,-13.4 72,-14 63.67,-14.31 54.61,-14.91 46.38,-15.54"/>
<polygon fill="black" stroke="black" points="45.85,-12.07 36.17,-16.38 46.42,-19.05 45.85,-12.07"/>
</g>
</g>
</svg>
